<svg version="1.1" viewBox="0 0 512 512" xml:space="preserve" xmlns="http://www.w3.org/2000/svg">
    <style>
    path {
       fill: #000;
    }
    @media (prefers-color-scheme: dark) {
      path {
        fill: #fff;
      }
    }
    </style>
    <path d="m330.26 0.13831c-1.9605 0.09111-3.7462 1.101-4.7946 3.0353-9.7725 17.257-12.639 41.115-15.518 64.961-6.0194 22.917-9.6822 46.082 3.9993 71.074-17.897-8.7672-29.782-22.667-43.443-35.053-8.4017-7.9146-18.688-10.735-30.685-8.9286l-27.86 5.0401-16.603 1.8082c-45.329-5.3122-43.338 43.786-9.1609 41.609 6.4584 0.51211 10.626-4.7284 16.203-5.8389l26.898-3.7129c6.0698-0.38089 11.067 1.6884 14.252 7.9051l10.427 27.597c-8.6397-5.1199-17.486-9.6861-27.203-11.932-8.4303-1.16-16.646-1.8503-24.898-3.7164-14.014-1.9827-27.329-0.30088-40.495 2.1558-6.1098 0.58049-12.313 0.94789-19.138-0.0948-34.085-2.0681-32.026 54.464 5.0825 43.739 3.542-1.2374 6.365-3.3015 8.5183-6.1356 1.3553-1.356 2.5054-2.8672 4.8315-3.4952 3.3655-0.81466 6.3282-2.5814 9.4927-3.2863l21.341-2.47c5.0113-0.68445 10.167-0.88942 16.368 2.3752l53.497 35.093c11.105 7.6774 24.331 13.955 42.89 16.714l-0.632 9.3657-23.517 0.42659c-21.151-0.0258-34.776 8.622-48.508 17.148l-27.56 18.803 2.6352-16.474c3.8367-15.054 1.4204-26.402-13.383-30.404-15.596-3.0101-41.418 4.113-77.007 19.557-55.966 4.9075-12.339 66.241 10.669 34.343l4.6893-8.6758 33.299-7.7401c8.5421-1.6426 11.047 2.2152 10.69 8.6811 0.54297 13.825-2.5424 27.136-4.6524 40.584 0.258 4.887-3.7584 14.953 10.507 16.85-3.8508 2.6734-8.5056 3.2984-12.781 5.2104-36.951 22.52-24.658 44.182-25.095 75.724-50.59-39.889-117.8-113.27-82.414-226.05 35.387-112.77 135.44-133.93 202.13-104.23 15.877 6.8042 28.82-14.276 13.023-26.057-64.132-46.51-216.82-12.96-254.2 115.71-24.564 111.59-2.7285 207.95 95.934 280.91 75.312 50.476 169.72 68.788 268.01 24.69 70.323-41.163 110.57-104.47 112.99-195.62 0.76444-43.664-21.785-133.71-53.311-164.09-16.399-15.783-16.9-30.539-14.702-44.959 12.221-18.563 13.841-38.24 9.4874-58.545-15.035 5.4913-29.417 14.36-42.012 32.481-2.4533 2.5797-5.0896 4.9446-10.246 4.3326-5.6364-1.3478-11.017-2.8485-19.11-2.7386-5.4231-0.56638-8.8619-3.2494-10.102-8.2773-6.787-16.248-11.997-33.589-22.985-46.923-1.7493-1.7392-3.8857-2.5664-5.8463-2.4753zm11.908 90.511c0.48666 7.1e-4 0.95363 0.0512 1.4168 0.11061-3.6578 2.4496-6.9634 12.873-1.4712 13.66 2.2066 0.31604 4.6864-0.88384 5.6689-2.7281h2e-3c0.52265-1.1351 0.96783-2.8145 0.84621-3.9868-0.24427-2.3535-0.64981-4.0621-1.157-5.2455 2.0792 1.9145 3.3559 5.6195 3.1759 12.396-6.5124 6.5944-17.967 3.9775-21.075-12.155 3.7281-0.21435 8.5194-2.0564 12.593-2.0504zm-161.32 16.988c0.99164 8e-3 2.0693 0.6355 3.211 0.6355 2.869 0-0.22497 8.0909-3.6447 7.3539-5.0471-1.0877-5.9072-6.3282-0.10885-7.9227 0.17765-0.0488 0.35885-0.0683 0.54249-0.0667zm-7.4983 8.0912c0.50254 2e-3 1.0384 0.19686 1.5853 0.64779 3.5014 1.901 1.6829 7.0167-2.8336 5.7809-3.1733-0.86824-1.4655-6.4418 1.2482-6.4287zm12.504 8.9549c11.872 4.0817-7.2981 17.012-7.2981 6.7939 0-2.3294 1.389-4.3507 3.3427-5.6896 1.0602-0.72657 2.6949-0.95241 3.9554-1.1042zm-14.816 2.0399c0.35168-3e-3 0.7524 0.0539 1.2044 0.18083 0.73892 1.0708 1.6053 2.0405 0.51615 3.5321-3.2938 4.5108-5.8704-3.679-1.7205-3.7129zm-34.542 36.61c0.46965-9e-3 0.94148 0.071 1.3641 0.1703 1.6251-0.0914 2.2616 0.75545 2.4649 2.0768 0.91975 5.978-9.3054 6.2852-6.1219-0.76365 0.51009-1.1294 1.3962-1.4666 2.2928-1.4834zm-6.5099 6.7552c5.8037-0.0725 1.9846 6.8395-1.7275 5.637-2.7279-0.88367-0.43059-5.5471 1.7275-5.637zm0.49334 8.9497c0.89626-0.01 1.8091 0.44881 2.572 1.6309-0.84564 1.1596 0.42566 2.4674-0.67943 3.9096-0.5015 0.65445-1.7717 0.72006-2.5141 0.76015-5.8503 0.3159-2.7312-6.264 0.6215-6.3006zm17.195 2.5683c5.4052-0.0868 7.1894 8.95 1.1657 10.591-3.5797 0.97529-12.985-5.0956-7.9811-8.6108 2.4084-1.6919 2.7998-1.2767 6.2816-1.9434 0.18176-0.0224 0.35935-0.0341 0.53372-0.0369zm-13.202 7.5365c0.7797-2e-3 1.7489 0.11738 2.9407 0.38973 2.0477 13.239-11.234-0.37291-2.9407-0.38973zm-31.517 75.495c0.79222-0.0119 1.3836 0.47366 1.8785 1.2482 3.2569 5.0967-5.9716 9.5106-5.9077 1.7766 0.0156-1.8883 1.5728-2.4483 2.8143-2.6807 0.45299-0.23131 0.85479-0.3387 1.2149-0.34409zm14.87 7.5488c4.2598-0.0761 7.8263 6.1737 3.5657 9.6325-2.8804 2.3384-13.936 0.58499-10.78-4.6521 1.5194-2.5208 2.0458-2.2985 4.9614-4.3151 0.74686-0.44591 1.5099-0.65212 2.2525-0.66533zm-18.834 1.5431c3.2438 3e-3 2.2705 5.9662-1.0955 6.3129-2.8524 0.29385-2.6348-4.9005-0.69698-5.8547 0.70119-0.32035 1.2957-0.45895 1.7925-0.4582zm3.2637 8.2211c0.60475-0.0102 1.2824 0.18922 2.0225 0.67586-0.30498 1.4024 1.3867 2.086 0.95858 3.8516-0.19423 0.80142-1.3298 1.3732-1.9926 1.7099-5.741 2.9153-4.937-6.1642-0.98842-6.2374zm9.5945 7.0221c7.9016 12.344-13.966 2.704 0 0z"/>
</svg>
